<svg width="84" height="72" viewBox="0 0 84 72" fill="none" xmlns="http://www.w3.org/2000/svg">
<path d="M6.2417 3.57996L42 64.8406L77.7584 3.57996H6.2417Z" fill="white"/>
<path d="M37.9751 24.077V22.2871H37.4501V24.1348C37.4501 24.4812 37.2751 24.6544 36.9251 24.6544C36.6917 24.6544 36.4584 24.4812 36.4584 24.077V22.2871H35.9334V24.1348C35.9334 24.4235 35.9917 24.6544 36.1084 24.8276C36.3417 25.1163 36.6917 25.1741 36.9251 25.1741C37.5667 25.1163 37.9751 24.8276 37.9751 24.077ZM71.0501 4.73462C69.6501 4.73462 68.4834 6.00487 68.4834 7.50607C68.4834 9.06501 69.6501 10.3353 71.0501 10.3353C72.4501 10.3353 73.6167 9.06501 73.6167 7.50607C73.6167 6.00487 72.4501 4.73462 71.0501 4.73462ZM71.0501 9.81561C69.8834 9.81561 69.0084 9.06501 68.9501 7.56381C68.8917 6.29356 69.8834 5.312 71.0501 5.312C72.2167 5.312 73.1501 6.29356 73.1501 7.56381C73.0917 8.83406 72.1584 9.81561 71.0501 9.81561ZM29.6334 38.5694L30.5084 38.1075L31.2084 39.32L31.5001 39.1468L30.8001 37.9343L31.5584 37.4724L32.3167 38.7426L32.6084 38.5694L31.7334 37.0105L29.2834 38.3962L30.2167 40.0129L30.5084 39.8397L29.6334 38.5694ZM32.9001 39.0313L30.4501 40.4748L31.0334 41.5141C31.0917 41.6296 31.3251 41.8028 31.6751 41.8028C32.0834 41.8605 32.4917 41.6873 32.9001 41.3986C33.4834 40.9944 33.6584 40.4171 33.3667 39.9552L32.9001 39.0313ZM33.0751 40.7635C32.9584 40.9944 32.7251 41.1099 32.4917 41.2831C32.2584 41.3986 32.0834 41.4564 31.9667 41.5141C31.8501 41.5718 31.5584 41.5141 31.4417 41.4564C31.3251 41.3986 31.3251 41.3409 31.2667 41.2831L30.9167 40.648L32.8417 39.551L33.1334 40.0706C33.1917 40.2439 33.2501 40.4748 33.0751 40.7635ZM38.6167 47.2302C38.8501 47.4612 38.8501 47.5189 38.7334 47.8653L38.9084 47.9808L39.1417 47.6344L40.4251 48.385L40.5417 48.2118L38.7334 47.1725L38.6167 47.2302ZM36.4001 51.0987C36.6334 51.3297 36.6334 51.3874 36.5167 51.7338L36.6917 51.8493L36.9251 51.5029L38.2084 52.2535L38.3251 52.0803L36.5167 51.041L36.4001 51.0987ZM38.5001 51.041C38.3251 50.9255 38.3251 50.5791 38.3251 50.5213V50.1749C38.3251 50.0017 38.2084 49.713 37.9751 49.5398C37.7417 49.3665 37.3334 49.4243 37.1584 49.713C36.8667 50.1749 37.2167 50.4636 37.4501 50.6368L37.5667 50.4636C37.3334 50.2904 37.2167 50.1749 37.3334 49.8862C37.3917 49.8285 37.5667 49.5975 37.8584 49.7707C38.0334 49.8862 38.0917 50.0594 38.0917 50.1749V50.5213C38.0917 50.9832 38.2667 51.1564 38.6167 51.3874L39.2584 50.2904L39.0251 50.2326L38.5001 51.041ZM39.0834 48.5582C38.9084 48.4427 38.5584 48.3273 38.3251 48.2695C38.0917 48.2695 37.9167 48.385 37.8001 48.5582C37.6834 48.7314 37.6834 48.9046 37.8001 49.1356C37.9167 49.3088 38.2084 49.5398 38.3834 49.6552C38.5584 49.7707 38.9084 49.8862 39.1417 49.9439C39.3751 49.9439 39.5501 49.8285 39.6667 49.713C39.7834 49.5398 39.7834 49.3665 39.6667 49.1356C39.6084 48.8469 39.3167 48.6737 39.0834 48.5582ZM39.4917 49.482C39.4334 49.5975 39.3167 49.6552 39.1417 49.6552C39.0251 49.6552 38.7917 49.5398 38.5584 49.4243C38.3251 49.3088 38.1501 49.1356 38.0917 49.0201C37.9751 48.9046 38.0334 48.7314 38.0334 48.6737C38.0917 48.5582 38.2084 48.5005 38.3834 48.5005C38.5001 48.5005 38.7334 48.6159 38.9667 48.7314C39.2001 48.8469 39.3751 49.0201 39.4334 49.1356C39.5501 49.2511 39.5501 49.3665 39.4917 49.482ZM31.1501 36.1444L30.1001 36.7795L29.4584 35.6248L30.5084 34.9896L30.3334 34.7009L27.8834 36.0867L28.0584 36.3754L29.1667 35.798L29.8084 36.9527L28.7001 37.5879L28.8751 37.8766L31.3251 36.4908L31.1501 36.1444ZM25.7251 18.3609V14.6079C25.7251 13.3377 26.1334 13.2799 26.8917 13.2222H26.9501V13.1645V12.7603H22.4584V13.1645H22.5167C23.6834 13.2799 23.9751 13.2799 23.9751 14.7811V17.8413C23.9751 18.4764 22.7501 18.8806 21.6417 18.8806C18.9584 18.8806 17.2084 16.7442 17.2084 13.3954C17.2084 7.79476 20.6501 7.50607 21.3501 7.50607C23.7417 7.50607 24.6167 9.29597 25.0834 10.6817V10.7394H25.5501L25.4334 6.69773H24.9667V6.75547C24.8501 7.33286 24.2084 7.33286 24.2084 7.33286C24.0334 7.33286 23.8001 7.27512 23.5084 7.15964C22.9834 6.98642 22.2251 6.69773 21.1167 6.69773C17.3834 6.69773 15.1667 9.93109 15.1667 13.049C15.1667 15.5317 15.6917 16.6288 16.6251 17.7258C17.7334 18.996 19.4834 19.7467 21.5251 19.7467C23.3917 19.7467 25.7251 18.7074 25.7251 18.3609ZM28.5251 8.94954V14.7811C28.5251 15.3585 28.5251 16.571 29.0501 17.6103C29.7501 18.9383 30.9751 19.6312 32.8417 19.6312C37.3334 19.6312 37.3334 16.0514 37.3334 14.5502V9.6424C37.3334 7.67929 37.6251 7.44833 38.9084 7.27512H38.9667V6.81321H34.8834V7.27512H34.9417C36.1667 7.33286 36.5167 7.67929 36.5167 9.6424V14.7234C36.5167 16.3401 36.3417 16.8597 36.1084 17.2639C35.5834 18.1877 34.5917 18.7074 33.3084 18.7074C30.3334 18.7074 30.3334 16.1669 30.3334 14.9543V8.94954C30.3334 7.62155 30.5084 7.39059 31.8501 7.27512H31.9084V6.81321H26.9501V7.27512H27.0084C28.3501 7.39059 28.5251 7.62155 28.5251 8.94954ZM38.5001 25.0586H39.0251V24.4812H38.5001V25.0586ZM27.5917 29.9664L25.3751 30.6592L27.0667 29.0426L26.8334 28.7539L24.5584 29.389L26.3084 27.8301L26.1334 27.5414L23.9751 29.5045L24.1501 29.7932L26.4251 29.158L24.7334 30.8325L24.9084 31.1212L27.7084 30.2551L27.5917 29.9664ZM28.3501 35.3361C28.5834 35.1629 28.7001 34.8742 28.7001 34.6432C28.6417 34.4123 28.5834 34.239 28.5251 34.0081C28.4667 33.8349 28.4667 33.7194 28.4667 33.6039C28.4667 33.2575 29.0501 33.0265 29.3417 33.5462C29.4001 33.6616 29.4584 33.7771 29.4584 33.9503C29.4584 34.1813 29.3417 34.2968 29.1667 34.3545L29.3417 34.6432C29.4584 34.5855 29.7501 34.4123 29.8084 33.9503C29.8084 33.7771 29.7501 33.5462 29.6334 33.3152C29.3417 32.7956 28.7584 32.7378 28.4084 33.0265C28.1167 33.2575 28.1167 33.4884 28.1167 33.6039C28.1751 33.9503 28.1167 33.7771 28.2334 34.1236C28.2917 34.2968 28.3501 34.5277 28.3501 34.7009C28.2917 35.1051 27.9417 35.1629 27.7084 35.0474C27.5917 34.9896 27.4751 34.9319 27.4167 34.8164C27.3584 34.7009 27.3001 34.5855 27.2417 34.5277C27.0667 34.1236 27.4167 33.8349 27.5334 33.7771L27.4167 33.5462C27.2417 33.6616 27.0667 33.7771 26.9501 34.0081C26.8334 34.3545 26.8917 34.5855 27.0667 34.8742C27.3001 35.3938 27.8834 35.6248 28.3501 35.3361ZM28.2917 31.2366L25.3751 31.8718L25.5501 32.1604L26.4251 31.9872L26.9501 32.8533L26.3667 33.4884L26.5417 33.8349L28.5251 31.6408L28.2917 31.2366ZM27.1251 32.5646L26.7167 31.8718L28.0001 31.6408L27.1251 32.5646ZM51.1584 19.7467C51.1584 19.4002 51.3334 19.1115 51.6251 19.1115C51.8001 19.1115 52.0334 19.227 52.3834 19.3425C52.9084 19.5157 53.4917 19.7467 54.3084 19.7467C56.7001 19.7467 57.9834 18.0145 57.9834 16.2823C57.9834 14.2037 56.2917 13.1067 54.7751 12.1252C53.4917 11.3168 52.2667 10.5085 52.2667 9.23823C52.2667 8.08346 53.1417 7.56381 53.9584 7.56381C55.7084 7.56381 56.8167 9.23823 57.1084 10.7394V10.7972H57.6334L57.2251 6.69773H56.7584V6.75547C56.7001 7.04416 56.5834 7.33286 56.1751 7.33286C56.0001 7.33286 55.7667 7.21738 55.4751 7.1019C55.0084 6.92869 54.4251 6.69773 53.7834 6.69773C52.2667 6.69773 50.6334 7.73703 50.6334 9.93109C50.6334 11.7787 51.7417 12.6448 53.3167 13.6264C55.8251 15.243 56.1167 15.8782 56.1167 16.9175C56.1167 17.9568 55.4167 18.9383 54.0751 18.9383C51.8001 18.9383 50.9251 16.571 50.5751 15.6472V15.5895H50.1667L50.6917 19.6312H51.1584V19.7467ZM48.8251 16.1669C48.0667 18.0722 47.2501 18.5919 45.0917 18.5919C42.5834 18.5919 42.5834 18.5919 42.5834 17.8413C42.5834 17.8413 42.5834 13.3377 42.5834 13.2222C42.6417 13.2222 45.2084 13.2799 45.2084 13.2799C46.6084 13.2799 46.8417 13.5109 47.0751 15.0121V15.0698H47.5417V10.624H47.0751V10.6817C46.9001 11.9519 46.7251 12.4139 45.2084 12.4139C45.2084 12.4139 42.7001 12.4139 42.5834 12.4139C42.5834 12.3561 42.5834 8.31441 42.5834 8.31441C42.5834 7.73703 42.7584 7.73703 43.1084 7.73703H45.4417C47.3667 7.73703 47.7751 8.02572 48.0084 9.70014V9.75788H48.5334L48.4751 6.98642H39.2001V7.44833H39.2584C40.3667 7.56381 40.7167 7.62155 40.7167 9.12275V17.3216C40.7167 18.7651 40.3667 18.8806 39.2584 18.996H39.2001V19.458H48.5917L49.4084 16.2246L48.8251 16.1669ZM54.4834 31.4676L56.4667 32.6224L53.8417 32.5646L53.6084 32.911L56.0584 34.3545L56.2334 34.0658L54.2501 32.911L56.8751 32.9688L57.0501 32.6224L54.6001 31.1789L54.4834 31.4676ZM46.6667 50.9255L46.7834 51.0987C47.0167 50.9255 47.1917 50.9832 47.3667 51.2142C47.4251 51.3297 47.4834 51.5029 47.2501 51.6761C46.9584 51.8493 46.8417 51.7338 46.7251 51.4451L46.5501 51.5606C46.7251 51.8493 46.7834 52.0225 46.4917 52.1957C46.3167 52.3112 46.0834 52.3112 45.9084 52.0225C45.7917 51.7916 45.9667 51.6184 46.1417 51.5029L46.0251 51.3297C45.7917 51.5029 45.5001 51.7916 45.7334 52.1957C45.9084 52.4844 46.2584 52.5999 46.6084 52.4267C46.7834 52.3112 46.9001 52.1957 46.9001 51.907C47.0167 51.9648 47.1917 52.0225 47.3667 51.907C47.7167 51.6761 47.7167 51.3874 47.6001 51.0987C47.3084 50.7523 47.0167 50.7523 46.6667 50.9255ZM52.7917 38.5694L50.8667 37.4147L50.6917 37.7034L52.3834 38.6849C52.5001 38.7426 52.7334 38.8581 52.7917 39.0313C52.8501 39.2046 52.7917 39.3778 52.6751 39.4932C52.5584 39.6087 52.3834 39.6087 52.2084 39.551L51.9751 39.3778L51.8001 39.6665L52.0334 39.8397C52.2084 39.9552 52.6751 40.0706 52.9667 39.6665C53.0251 39.6087 53.1417 39.3778 53.1417 39.2046C53.1417 38.8581 52.9084 38.6849 52.7917 38.5694ZM47.5417 25.0586H48.0667V24.4812H47.5417V25.0586ZM52.7334 34.2968L54.7167 36.5486L54.8917 36.2599L54.3084 35.567L54.8334 34.7009L55.7084 34.9319L55.8834 34.5855L52.9667 33.8926L52.7334 34.2968ZM54.4834 34.7009L54.0751 35.3938L53.2001 34.4123L54.4834 34.7009ZM57.6334 30.0819C57.4001 29.9664 57.0501 29.9664 56.8751 30.1396C56.7001 30.3128 56.5251 30.4283 56.4084 30.6015C56.2917 30.717 56.1751 30.8325 56.0584 30.8902C55.7667 31.0634 55.3001 30.6592 55.5917 30.1396C55.6501 30.0241 55.7084 29.9086 55.8834 29.8509C56.1167 29.7354 56.2334 29.7932 56.4084 29.9086L56.5834 29.6199C56.4667 29.5622 56.1751 29.389 55.7667 29.5622C55.5917 29.6199 55.4167 29.8509 55.3001 30.0241C54.9501 30.5438 55.2417 31.0634 55.6501 31.2366C56.0001 31.4098 56.1751 31.2944 56.2917 31.1789C56.5834 30.9479 56.4667 31.0634 56.7001 30.8325C56.8167 30.717 56.9917 30.5438 57.1084 30.486C57.4584 30.3128 57.6917 30.6015 57.7501 30.8325C57.7501 30.9479 57.7501 31.0634 57.6917 31.2366C57.6334 31.3521 57.5751 31.4676 57.5167 31.5253C57.2251 31.8718 56.8751 31.6985 56.7001 31.6408L56.5251 31.7563C56.7001 31.8718 56.8751 31.9295 57.1667 31.9295C57.5167 31.8718 57.6917 31.6985 57.9251 31.4098C58.2167 30.9479 58.1584 30.3128 57.6334 30.0819ZM53.4917 37.9343L52.6751 37.4147L53.3751 36.2021L53.0834 36.0289L52.3834 37.2414L51.6251 36.7795L52.3834 35.5093L52.0917 35.3361L51.1584 36.9527L53.6084 38.3962L54.5417 36.8373L54.2501 36.6641L53.4917 37.9343ZM41.8251 23.4997L41.1834 23.3264C41.0667 23.3264 40.8917 23.2687 40.8917 23.0378C40.8917 22.8068 41.1251 22.6913 41.3584 22.6913C41.8251 22.6913 41.8834 22.98 41.8834 23.0955H42.4084C42.4084 22.7491 42.1751 22.1717 41.4167 22.1717C40.6001 22.1717 40.4251 22.6913 40.4251 23.0378C40.4251 23.6729 40.8334 23.7306 41.2417 23.8461L41.5334 23.9038C41.8251 23.9616 42.0001 24.0193 42.0001 24.2503C42.0001 24.539 41.7084 24.5967 41.4751 24.5967C41.0084 24.5967 40.9501 24.308 40.9501 24.1348H40.4251C40.4251 24.4812 40.6001 25.0586 41.5334 25.0586C41.7667 25.0586 42.5251 25.0009 42.5251 24.1348C42.5251 23.7306 42.1751 23.5574 41.8251 23.4997ZM71.6334 7.44833C72.0417 7.33286 72.2751 7.04416 72.2751 6.63999C72.2751 6.00487 71.6917 5.83165 71.1667 5.83165H70.0001V9.06501H70.4667V7.62155H71.1084C71.2834 7.62155 71.4584 7.62155 71.6334 7.79476C71.8084 7.96798 71.8084 8.19893 71.8084 8.54537C71.8084 8.71858 71.8667 8.94954 71.9251 9.12275H72.3917C72.2751 8.83406 72.2167 8.48763 72.1584 8.1412C72.1001 7.73703 72.0417 7.56381 71.6334 7.44833ZM71.1667 7.21738H70.4084V6.17808H71.1667C71.6917 6.17808 71.8084 6.40904 71.8084 6.69773C71.7501 6.98642 71.6334 7.21738 71.1667 7.21738ZM45.3251 47.288C44.9751 47.3457 44.9751 47.3457 44.7417 47.057L44.5667 47.1725L44.8001 47.5189L43.5167 48.2695L43.6334 48.4427L45.4417 47.4034L45.3251 47.288ZM42.9334 25.0586H43.4584V24.4812H42.9334V25.0586ZM44.8001 49.1933L45.0917 49.3665C45.2667 49.482 45.5584 49.5398 45.7917 49.3665C46.0251 49.1933 46.2001 48.9046 46.0251 48.5582C45.7334 48.0963 45.3251 48.2118 45.0917 48.3273L45.2084 48.5005C45.4417 48.385 45.6751 48.3273 45.8501 48.6159C45.9084 48.6737 46.0251 48.9624 45.7334 49.1356C45.5584 49.2511 45.3834 49.1933 45.2667 49.1356L44.9167 49.0201C44.5084 48.7892 44.2751 48.8469 43.9251 49.0201L44.5667 50.1171L44.8001 50.0017L44.2751 49.1356C44.4501 49.0201 44.7417 49.1933 44.8001 49.1933ZM45.5001 24.4812H46.4334L46.6084 25.0586H47.1917L46.3167 22.2871H45.6751L44.7417 25.0586H45.3251L45.5001 24.4812ZM45.9667 22.9223L46.3167 24.0193H45.6751L45.9667 22.9223ZM64.1084 12.1829C62.8251 11.3746 61.6001 10.5662 61.6001 9.29597C61.6001 8.1412 62.4751 7.62155 63.2917 7.62155C65.0417 7.62155 66.1501 9.29597 66.4417 10.7972V10.8549H66.9667L66.5584 6.75547H66.0917V6.81321C66.0334 7.1019 65.9167 7.39059 65.5084 7.39059C65.3334 7.39059 65.1001 7.27512 64.8084 7.15964C64.3417 6.98642 63.7584 6.75547 63.1167 6.75547C61.6001 6.75547 59.9667 7.79476 59.9667 9.98883C59.9667 11.8365 61.0751 12.7025 62.6501 13.6841C65.1584 15.3008 65.4501 15.9359 65.4501 16.9752C65.4501 18.0145 64.7501 18.996 63.4084 18.996C61.1334 18.996 60.2584 16.6288 59.9084 15.705V15.6472H59.5001L60.0251 19.6889H60.4917V19.6312C60.4917 19.3425 60.6667 19.0538 60.9584 19.0538C61.1334 19.0538 61.3667 19.1693 61.7167 19.2847C62.2417 19.458 62.8251 19.6889 63.6417 19.6889C66.0334 19.6889 67.3167 17.9568 67.3167 16.2246C67.3167 14.2037 65.6251 13.1067 64.1084 12.1829ZM46.7834 50.4058C46.9001 50.2326 46.9001 50.0017 46.7834 49.8285C46.6667 49.6552 46.4917 49.5398 46.2584 49.5975C46.0251 49.5975 45.7334 49.7707 45.5001 49.8862C45.3251 50.0017 45.0334 50.1749 44.9167 50.4058C44.8001 50.5791 44.8001 50.81 44.9167 50.9832C45.0334 51.1564 45.2084 51.2719 45.4417 51.2142C45.6751 51.2142 45.9667 51.041 46.2001 50.9255C46.3751 50.81 46.6667 50.5791 46.7834 50.4058ZM45.5001 50.9255C45.3251 50.9255 45.2084 50.8678 45.1501 50.7523C45.0917 50.6368 45.0917 50.5213 45.2084 50.4058C45.2667 50.3481 45.5001 50.1749 45.6751 50.0017C45.9084 49.8862 46.1417 49.7707 46.2584 49.7707C46.4334 49.7707 46.5501 49.8285 46.6084 49.9439C46.6667 50.0594 46.6667 50.1749 46.5501 50.2904C46.4917 50.3481 46.2584 50.5213 46.0834 50.6945C45.8501 50.81 45.5584 50.9255 45.5001 50.9255Z" fill="#221D1E"/>
<path d="M37.6833 55.0826H46.375L42 47.6343L37.6833 55.0826ZM47.6583 30.486C45.9667 28.8115 43.6333 28.6383 41.2417 28.5806L40.775 28.6383C39.3167 28.8115 37.8583 28.9848 36.6333 29.8508C34.5333 31.2366 34.3 33.4884 34.125 35.6824C34.0667 36.2021 34.0083 36.7217 33.95 37.2414V37.3569H38.2083V36.6063C38.2083 35.9711 38.2083 35.2783 38.5 34.7586C39.0833 33.8925 40.075 33.4306 41.5917 33.4306C42.175 33.4884 43.6333 33.6616 43.9833 34.8741C44.2167 36.0289 43.3417 36.7217 42.4667 37.4723C42.2333 37.7033 41.9417 37.9342 41.7083 38.1652C40.6583 39.1468 39.9583 40.3593 39.6083 41.8027V45.8444H44.5083V45.7867C44.5083 45.4403 44.5083 44.9783 44.45 44.5742C44.3917 43.4194 44.275 42.0914 45.0333 41.1099C45.5583 40.417 46.2 39.7819 46.8417 39.2045C47.6583 38.4539 48.475 37.6455 49 36.664C49.8167 34.5277 49.2917 32.1604 47.6583 30.486ZM0 0L42 72L84 0H0ZM6.24167 3.57979H77.7583L42 64.8404L6.24167 3.57979Z" fill="#ED1B2C"/>
</svg>
