<svg width="19" height="20" viewBox="0 0 19 20" fill="none" xmlns="http://www.w3.org/2000/svg">
<g id="Group 34137">
<circle id="Ellipse 9" cx="9.5" cy="10.0207" r="8.55094" stroke="black"/>
<path id="Arrow 3" d="M5.63795 9.52066C5.3618 9.52066 5.13795 9.74452 5.13795 10.0207C5.13795 10.2968 5.3618 10.5207 5.63795 10.5207V9.52066ZM13.9915 10.3742C14.1868 10.179 14.1868 9.86237 13.9915 9.66711L10.8095 6.48513C10.6143 6.28986 10.2977 6.28986 10.1024 6.48513C9.90715 6.68039 9.90715 6.99697 10.1024 7.19223L12.9308 10.0207L10.1024 12.8491C9.90715 13.0443 9.90715 13.3609 10.1024 13.5562C10.2977 13.7515 10.6143 13.7515 10.8095 13.5562L13.9915 10.3742ZM5.63795 10.5207H13.6379V9.52066H5.63795V10.5207Z" fill="black"/>
</g>
</svg>
